<svg viewBox="0 0 860 200" xmlns="http://www.w3.org/2000/svg">
  <!-- Canyon State Institute — reversed lockup for dark backgrounds -->
  <defs>
    <clipPath id="badgeR">
      <circle cx="100" cy="100" r="92"/>
    </clipPath>
  </defs>

  <!-- Dark background for preview; delete this rect when placing on your own dark surface -->
  <rect width="860" height="200" fill="#2B1A10"/>

  <!-- ===== Emblem ===== -->
  <circle cx="100" cy="100" r="97" fill="none" stroke="#F6E7D3" stroke-width="6"/>
  <circle cx="100" cy="100" r="92" fill="#F6E7D3"/>
  <g clip-path="url(#badgeR)">
    <circle cx="100" cy="78" r="30" fill="#E8A33D"/>
    <path d="M-10 118 L34 118 L44 96 L74 96 L84 118 L120 118 L130 92 L162 92 L172 118 L210 118 L210 210 L-10 210 Z" fill="#C05B2B"/>
    <path d="M-10 140 L28 140 L42 116 L70 116 L82 140 L118 140 L132 112 L160 112 L172 140 L210 140 L210 210 L-10 210 Z" fill="#A33E14"/>
    <path d="M-10 164 L36 164 L52 138 L84 138 L98 164 L138 164 L152 136 L182 136 L196 164 L210 164 L210 210 L-10 210 Z" fill="#7A2E0E"/>
    <path d="M100 210 C96 192 108 184 102 172 C98 164 104 158 100 150" fill="none" stroke="#F6E7D3" stroke-width="5" stroke-linecap="round" opacity="0.85"/>
  </g>

  <!-- ===== Wordmark ===== -->
  <text x="230" y="92" font-family="Georgia, 'Times New Roman', serif" font-size="52" font-weight="bold" fill="#F6E7D3" letter-spacing="1">CANYON STATE</text>
  <text x="232" y="138" font-family="Georgia, 'Times New Roman', serif" font-size="34" fill="#E8A33D" letter-spacing="14">INSTITUTE</text>
  <line x1="232" y1="156" x2="828" y2="156" stroke="#C05B2B" stroke-width="2"/>
  <text x="232" y="180" font-family="Verdana, Arial, sans-serif" font-size="15" fill="#D9BFa8" letter-spacing="5">VETERAN OWNED &#183; CAREER-FOCUSED EDUCATION</text>
</svg>
